<?xml version="1.0" encoding="UTF-8" standalone="no"?>
<svg
   id="Calque_1"
   data-name="Calque 1"
   version="1.1"
   viewBox="0 0 209.99934 56.016003"
   sodipodi:docname="qc-drapeau-sante-qc.svg"
   width="209.99934"
   height="56.016003"
   inkscape:version="1.1.2 (b8e25be833, 2022-02-05)"
   xmlns:inkscape="http://www.inkscape.org/namespaces/inkscape"
   xmlns:sodipodi="http://sodipodi.sourceforge.net/DTD/sodipodi-0.dtd"
   xmlns="http://www.w3.org/2000/svg"
   xmlns:svg="http://www.w3.org/2000/svg">
  <sodipodi:namedview
     id="namedview69"
     pagecolor="#ffffff"
     bordercolor="#000000"
     borderopacity="0.25"
     inkscape:pageshadow="2"
     inkscape:pageopacity="0.0"
     inkscape:pagecheckerboard="0"
     showgrid="false"
     fit-margin-left="5"
     fit-margin-top="5"
     fit-margin-right="5"
     fit-margin-bottom="5"
     inkscape:zoom="2.6711726"
     inkscape:cx="63.08091"
     inkscape:cy="-11.231023"
     inkscape:window-width="1920"
     inkscape:window-height="1009"
     inkscape:window-x="-8"
     inkscape:window-y="-8"
     inkscape:window-maximized="1"
     inkscape:current-layer="Calque_1" />
  <defs
     id="defs4">
    <style
       id="style2">
      .cls-1 {
        fill: #325ea8;
      }

      .cls-1, .cls-2, .cls-3, .cls-4 {
        stroke-width: 0px;
      }

      .cls-2, .cls-4 {
        fill: #000;
      }

      .cls-3 {
        fill: #fff;
      }

      .cls-3, .cls-4 {
        fill-rule: evenodd;
      }
    </style>
  </defs>
  <g
     id="g1020"
     transform="matrix(0.15338667,0,0,0.15338667,4.6763541,-1.8763244)">
    <path
       class="cls-2"
       d="M 260.38,174.7 V 94.82 h -0.49 c -2.94,2.45 -13.23,2.94 -17.64,2.94 h -7.84 v 0.49 c 8.82,5.39 7.84,13.72 7.84,23.52 v 33.82 c 0,17.15 -16.66,28.91 -29.89,28.91 -17.64,0 -24.99,-12.74 -24.99,-32.84 V 94.81 h -0.49 c -2.94,2.45 -13.23,2.94 -18.13,2.94 h -7.84 v 0.49 c 8.82,5.39 7.84,13.72 7.84,23.52 v 33.82 c 0,30.88 13.23,45.58 37.25,45.58 14.21,0 28.91,-4.9 36.27,-17.15 v 14.7 h 25.97 v -0.49 c -8.82,-5.39 -7.84,-13.23 -7.84,-23.52 z"
       id="path6" />
    <path
       class="cls-2"
       d="m 301.06,132.06 c 2.45,-13.72 12.74,-22.54 26.46,-22.54 14.7,0 24.01,7.35 26.46,22.54 h -52.93 z m 74,12.74 c 0.98,-28.42 -18.13,-49.5 -45.58,-49.5 -30.38,0 -50.97,22.05 -50.97,52.44 0,30.39 24.01,53.91 58.32,53.91 9.8,0 19.11,-1.47 27.93,-5.39 l 10.29,-20.58 h -0.49 c -9.31,7.84 -21.07,11.76 -33.33,11.76 -23.03,0 -40.19,-15.68 -40.68,-42.64 h 74.49 z"
       id="path8" />
    <path
       class="cls-2"
       d="m 391.23,48.26 c 4.9,0 14.7,-0.49 17.64,-3.43 h 0.49 v 138.69 c 5.39,1.47 11.27,2.45 16.66,2.45 22.05,0 34.8,-15.68 34.8,-37.25 0,-21.57 -9.8,-37.74 -30.38,-37.74 -6.37,0 -11.27,1.96 -17.15,4.9 l 10.78,-18.62 c 4.41,-1.96 9.31,-2.45 14.21,-2.45 23.03,0 42.64,20.09 42.64,49.99 0,34.31 -23.03,56.36 -59.79,56.36 -13.72,0 -26.95,-2.45 -36.76,-3.92 v -0.49 c 6.86,-2.94 5.88,-10.29 5.88,-17.64 V 78.64 c 0,-10.29 0.98,-24.5 -7.35,-29.89 v -0.49 z"
       id="path10" />
    <path
       class="cls-2"
       d="m 518.17,132.06 c 2.45,-13.72 12.74,-22.54 26.46,-22.54 14.7,0 24.01,7.35 26.46,22.54 h -52.93 z m 73.51,12.74 c 0.98,-28.42 -18.13,-49.5 -45.58,-49.5 -30.38,0 -50.97,22.05 -50.97,52.44 0,30.39 24.01,53.91 58.32,53.91 9.8,0 19.11,-1.47 27.93,-5.39 l 10.29,-20.58 h -0.49 c -9.31,7.84 -21.07,11.76 -33.33,11.76 -23.03,0 -40.19,-15.68 -40.68,-42.64 h 74.49 z"
       id="path12" />
    <path
       class="cls-2"
       d="m 682.83,120.3 h -0.49 c -5.88,-7.35 -15.68,-10.78 -24.99,-10.78 -19.6,0 -33.82,15.19 -33.82,35.78 0,25.48 19.6,42.15 42.15,42.15 10.29,0 21.56,-4.41 29.89,-10.78 h 0.49 l -10.78,20.58 c -8.33,3.43 -18.13,4.41 -26.95,4.41 -31.37,0 -55.87,-22.05 -55.87,-50.48 0,-37.74 27.44,-55.87 57.83,-55.87 7.35,0 14.7,0.98 22.05,2.45 v 22.54 z"
       id="path14" />
    <path
       class="cls-4"
       d="M 349.58,77.17 V 55.12 C 336.35,61 324.1,72.27 315.76,83.05 v 8.82 c 19.6,-13.72 33.82,-14.21 33.82,-14.7 z"
       id="path16" />
    <path
       class="cls-2"
       d="m 77.09,186.46 c -30.88,0 -51.95,-34.8 -51.95,-64.2 v -3.43 c 0.49,-28.42 18.62,-55.38 50.97,-55.38 32.35,0 51.46,31.86 51.46,62.24 v 2.94 c 0,33.33 -20.09,57.83 -50.48,57.83 z m 105.37,33.81 c -22.54,3.92 -44.6,-3.43 -67.63,-29.89 22.54,-11.27 36.27,-39.21 36.27,-65.18 v -3.43 c -0.49,-44.6 -33.82,-74 -73.51,-74 -39.69,0 -74.99,30.38 -75.48,75.47 v 2.94 c 0,43.62 32.35,75.96 72.04,75.96 5.88,0 11.27,-0.98 16.66,-2.45 25.97,24.5 49.01,34.8 69.1,32.35 9.31,-0.98 19.6,-4.9 25.48,-12.74 l -2.94,0.98 z"
       id="path18" />
    <path
       id="rect22"
       class="cls-1"
       style="fill:#325ea8;stroke-width:0px"
       d="m 732.33002,48.259998 h 99 V 109.03 h -99 z" />
    <path
       class="cls-3"
       d="m 781.83,51.2 c -0.49,1.47 -2.45,3.43 -4.9,6.86 -2.94,3.92 -2.45,9.31 -0.98,12.25 1.96,3.43 2.94,6.37 3.43,9.31 0.98,3.92 0.49,9.8 0.49,9.31 h -2.94 c 0,-6.86 -1.96,-13.23 -7.35,-15.68 -7.35,-3.92 -14.21,2.94 -12.25,10.29 0.98,3.92 3.43,4.9 3.92,4.9 0,0 -0.98,-3.92 1.96,-6.37 2.94,-1.96 6.37,-0.98 7.84,1.47 1.47,2.45 1.96,5.39 1.96,5.39 h -5.39 v 3.92 h 10.29 c 0,0 -0.49,5.39 -5.88,4.9 0,0 0.49,4.41 5.88,1.96 0,0 -0.49,4.41 3.43,6.86 v 0 c 3.43,-2.45 3.43,-6.86 3.43,-6.86 5.39,2.45 5.88,-1.96 5.88,-1.96 -5.88,0.49 -5.88,-4.9 -5.88,-4.9 h 10.29 v -3.92 h -5.39 c 0,0 0.49,-2.94 1.96,-5.39 1.47,-2.45 4.9,-3.43 7.84,-1.47 2.94,1.96 1.96,6.37 1.96,6.37 0.49,0 2.94,-1.47 3.92,-4.9 2.45,-7.35 -4.9,-14.21 -12.25,-10.29 -4.9,2.94 -7.35,9.31 -7.35,15.68 h -2.94 c 0,0.49 -0.49,-4.9 0.49,-9.31 0.98,-2.94 1.96,-5.88 3.43,-9.31 1.47,-2.94 1.96,-8.33 -0.98,-12.25 -1.47,-3.43 -2.94,-5.39 -3.92,-6.86 z"
       id="path24" />
    <path
       id="rect26"
       class="cls-1"
       style="fill:#325ea8;stroke-width:0px"
       d="m 860.72998,48.259998 h 99 V 109.03 h -99 z" />
    <path
       class="cls-3"
       d="m 910.23,51.2 c -0.98,1.47 -2.45,3.43 -4.9,6.86 -2.94,3.92 -2.45,9.31 -0.98,12.25 1.96,3.43 2.94,6.37 3.43,9.31 0.98,3.92 0.49,9.8 0.49,9.31 h -2.94 c 0,-6.86 -1.96,-13.23 -7.35,-15.68 -7.35,-3.92 -14.21,2.94 -12.25,10.29 0.98,3.92 3.43,4.9 3.92,4.9 0,0 -0.98,-3.92 1.96,-6.37 2.94,-1.96 6.37,-0.98 7.84,1.47 1.47,2.45 1.96,5.39 1.96,5.39 h -5.39 v 3.92 h 10.29 c 0,0 -0.49,5.39 -5.88,4.9 0,0 0.49,4.41 5.88,1.96 0,0 -0.49,4.41 3.43,6.86 v 0 c 3.43,-2.45 3.43,-6.86 3.43,-6.86 5.39,2.45 5.88,-1.96 5.88,-1.96 -5.88,0.49 -5.88,-4.9 -5.88,-4.9 h 10.29 v -3.92 h -5.39 c 0,0 0.49,-2.94 1.96,-5.39 1.47,-2.45 4.9,-3.43 7.84,-1.47 2.94,1.96 1.96,6.37 1.96,6.37 0.49,0 2.45,-1.47 3.92,-4.9 2.45,-7.35 -4.9,-14.21 -12.25,-10.29 -4.9,2.94 -7.35,9.31 -7.35,15.68 h -1.96 c 0,0.49 -0.49,-4.9 0.49,-9.31 0.98,-2.94 1.96,-5.88 3.43,-9.31 1.47,-2.94 1.96,-8.33 -0.98,-12.25 -2.45,-3.43 -4.41,-5.39 -4.9,-6.86 z"
       id="path28" />
    <path
       id="rect32"
       class="cls-1"
       style="fill:#325ea8;stroke-width:0px"
       d="m 732.33002,137.94 h 99 v 60.77 h -99 z" />
    <path
       class="cls-3"
       d="m 781.83,140.88 c -0.49,1.47 -2.45,3.43 -4.9,6.86 -2.94,3.92 -2.45,9.31 -0.98,12.25 1.96,3.43 2.94,6.37 3.43,9.31 0.98,3.92 0.49,9.8 0.49,9.31 h -2.94 c 0,-6.86 -1.96,-13.23 -7.35,-15.68 -7.35,-3.92 -14.21,2.94 -12.25,10.29 0.98,3.92 3.43,4.9 3.92,4.9 0,0 -0.98,-3.92 1.96,-6.37 2.94,-1.96 6.37,-0.98 7.84,1.47 1.47,2.45 1.96,5.39 1.96,5.39 h -5.39 v 3.92 h 10.29 c 0,0 -0.49,5.39 -5.88,4.9 0,0 0.49,4.41 5.88,1.96 0,0 -0.49,4.41 3.43,6.86 v 0 c 3.43,-2.45 3.43,-6.86 3.43,-6.86 5.39,2.45 5.88,-1.96 5.88,-1.96 -5.88,0.49 -5.88,-4.9 -5.88,-4.9 h 10.29 v -3.92 h -5.39 c 0,0 0.49,-2.94 1.96,-5.39 1.47,-2.45 4.9,-3.43 7.84,-1.47 2.94,1.96 1.96,6.37 1.96,6.37 0.49,0 2.94,-1.47 3.92,-4.9 2.45,-7.35 -4.9,-14.21 -12.25,-10.29 -4.9,2.94 -7.35,9.31 -7.35,15.68 h -2.94 c 0,0.49 -0.49,-4.9 0.49,-9.31 0.98,-2.94 1.96,-5.88 3.43,-9.31 1.47,-2.94 1.96,-8.33 -0.98,-12.25 -1.47,-3.43 -2.94,-5.39 -3.92,-6.86 z"
       id="path34" />
    <path
       id="rect36"
       class="cls-1"
       style="fill:#325ea8;stroke-width:0px"
       d="m 860.72998,137.94 h 99 v 60.77 h -99 z" />
    <path
       class="cls-3"
       d="m 910.23,140.88 c -0.98,1.47 -2.45,3.43 -4.9,6.86 -2.94,3.92 -2.45,9.31 -0.98,12.25 1.96,3.43 2.94,6.37 3.43,9.31 0.98,3.92 0.49,9.8 0.49,9.31 h -2.94 c 0,-6.86 -1.96,-13.23 -7.35,-15.68 -7.35,-3.92 -14.21,2.94 -12.25,10.29 0.98,3.92 3.43,4.9 3.92,4.9 0,0 -0.98,-3.92 1.96,-6.37 2.94,-1.96 6.37,-0.98 7.84,1.47 1.47,2.45 1.96,5.39 1.96,5.39 h -5.39 v 3.92 h 10.29 c 0,0 -0.49,5.39 -5.88,4.9 0,0 0.49,4.41 5.88,1.96 0,0 -0.49,4.41 3.43,6.86 v 0 c 3.43,-2.45 3.43,-6.86 3.43,-6.86 5.39,2.45 5.88,-1.96 5.88,-1.96 -5.88,0.49 -5.88,-4.9 -5.88,-4.9 h 10.29 v -3.92 h -5.39 c 0,0 0.49,-2.94 1.96,-5.39 1.47,-2.45 4.9,-3.43 7.84,-1.47 2.94,1.96 1.96,6.37 1.96,6.37 0.49,0 2.45,-1.47 3.92,-4.9 2.45,-7.35 -4.9,-14.21 -12.25,-10.29 -4.9,2.94 -7.35,9.31 -7.35,15.68 h -1.96 c 0,0.49 -0.49,-4.9 0.49,-9.31 0.98,-2.94 1.96,-5.88 3.43,-9.31 1.47,-2.94 1.96,-8.33 -0.98,-12.25 -2.45,-3.43 -4.41,-5.39 -4.9,-6.86 z"
       id="path38" />
    <path
       class="cls-2"
       d="m 768.95,260.37 -0.62,10.97 c -4.69,-2 -8.87,-3 -12.52,-3 -7.04,0 -10.56,2.79 -10.56,8.38 0,3.38 2.35,6.62 7.04,9.73 8.42,5.52 12.8,8.42 13.14,8.69 4.69,4.21 7.04,9.35 7.04,15.42 0,6.62 -2.23,11.89 -6.68,15.78 -4.45,3.9 -10.02,5.85 -16.72,5.85 -5.94,0 -11.35,-1.14 -16.25,-3.42 l 0.93,-11.07 c 5.04,2.83 9.94,4.24 14.7,4.24 3.17,0 5.81,-0.78 7.92,-2.33 2.1,-1.55 3.16,-3.85 3.16,-6.88 0,-4 -2.38,-7.66 -7.14,-10.97 -4.42,-2.97 -8.83,-5.93 -13.25,-8.9 -4.76,-4.07 -7.14,-9.04 -7.14,-14.9 0,-6.42 2.24,-11.42 6.73,-15.01 4.14,-3.24 9.52,-4.86 16.15,-4.86 4.76,0 9.45,0.76 14.08,2.28 z"
       id="path44" />
    <path
       class="cls-2"
       d="m 822.15,331.06 h -11.59 l -0.72,-6.62 c -3.8,5.17 -8.8,7.76 -15.01,7.76 -4.69,0 -8.44,-1.52 -11.23,-4.55 -2.79,-3.04 -4.19,-6.93 -4.19,-11.69 0,-12.77 10,-18.73 30.01,-17.91 v -2.28 c 0,-6.62 -3.52,-9.94 -10.56,-9.94 -5.11,0 -9.59,1.69 -13.45,5.07 l -0.83,-10.04 c 5.66,-2.69 11.28,-4.04 16.87,-4.04 7.8,0 13.25,1.9 16.35,5.69 2.69,3.38 4.04,9.07 4.04,17.08 0,1.8 -0.04,5.28 -0.1,10.45 -0.07,4.42 -0.1,7.93 -0.1,10.56 0.07,3.86 0.24,7.35 0.52,10.45 z M 809.42,305.5 c -2.21,-0.21 -3.69,-0.31 -4.45,-0.31 -9.18,0 -13.76,3.28 -13.76,9.83 0,5.38 2.66,8.07 7.97,8.07 6.83,0 10.25,-4.73 10.25,-14.18 v -3.42 z"
       id="path46" />
    <path
       class="cls-2"
       d="m 875.35,294.42 v 36.64 h -12.42 v -34.15 c 0,-6.35 -2.42,-9.52 -7.25,-9.52 -2.97,0 -5.21,1.38 -6.73,4.14 -1.24,2.28 -1.86,5.04 -1.86,8.28 v 31.26 h -12.42 c 0,-3.38 0.07,-8.5 0.21,-15.37 0.14,-6.87 0.21,-12.02 0.21,-15.47 0,-8.49 -0.31,-15.9 -0.93,-22.25 h 11.28 c 0.34,4.35 0.52,6.97 0.52,7.87 2.76,-6 7.59,-9.01 14.49,-9.01 9.94,0 14.9,5.87 14.9,17.6 z"
       id="path48" />
    <path
       class="cls-2"
       d="m 902.25,260.27 v 17.7 h 10.35 v 9.01 h -10.35 v 25.77 c 0,3.31 0.24,5.52 0.72,6.62 0.76,2 2.52,3 5.28,3 1.52,0 3.14,-0.28 4.86,-0.83 v 9.21 c -3.1,0.76 -6.04,1.14 -8.8,1.14 -6.14,0 -10.21,-1.76 -12.21,-5.28 -1.52,-2.55 -2.28,-7.14 -2.28,-13.76 v -25.87 h -8.38 v -9.01 h 8.38 V 264 l 12.42,-3.73 z"
       id="path50" />
    <path
       class="cls-2"
       d="m 960.73,307.88 h -29.7 c 0.48,10.01 5.14,15.01 13.97,15.01 4.41,0 8.73,-1.27 12.94,-3.83 v 9.63 c -4.55,2.28 -9.49,3.41 -14.8,3.41 -8.14,0 -14.35,-2.59 -18.63,-7.76 -4,-4.76 -6,-11.31 -6,-19.66 0,-7.8 1.72,-14.21 5.17,-19.25 3.93,-5.73 9.63,-8.59 17.08,-8.59 6.76,0 11.97,2.86 15.63,8.59 3.11,4.97 4.59,10.97 4.45,18.01 l -0.1,4.45 z m -11.59,-7.56 v -0.93 c 0,-9.11 -2.86,-13.66 -8.59,-13.66 -5.73,0 -9.11,4.86 -9.73,14.59 z m -16.66,-29.08 6.62,-14.9 h 12.01 l -10.56,14.9 z"
       id="path52" />
    <path
       class="cls-2"
       d="m 1037.11,328.99 12.83,15.84 h -14.18 l -9.73,-12.73 c -20.49,0 -30.74,-12.32 -30.74,-36.95 0,-10.56 2.07,-19.08 6.21,-25.56 4.97,-7.66 12.42,-11.49 22.36,-11.49 9.94,0 17.39,3.83 22.36,11.49 4.14,6.49 6.21,15.01 6.21,25.56 0,17.18 -5.11,28.46 -15.32,33.84 z m -13.25,-60.96 c -9.87,0 -14.8,9.04 -14.8,27.12 0,18.08 4.93,27.01 14.8,27.01 9.87,0 14.8,-9 14.8,-27.01 0,-18.01 -4.93,-27.12 -14.8,-27.12 z"
       id="path54" />
    <path
       class="cls-2"
       d="m 1062.99,277.97 h 12.42 v 34.15 c 0,6.35 2.31,9.52 6.93,9.52 3.17,0 5.52,-1.41 7.04,-4.24 1.24,-2.28 1.86,-5.14 1.86,-8.59 v -30.84 h 12.42 c 0,3.45 -0.07,8.73 -0.21,15.84 -0.14,7.11 -0.21,12.46 -0.21,16.04 0,8.07 0.28,15.15 0.83,21.22 h -11.28 c -0.28,-2.55 -0.41,-5.17 -0.41,-7.87 -2.76,6 -7.59,9 -14.49,9 -9.94,0 -14.9,-5.86 -14.9,-17.6 v -36.64 z"
       id="path56" />
    <path
       class="cls-2"
       d="m 1156.45,307.88 h -29.7 c 0.48,10.01 5.14,15.01 13.97,15.01 4.41,0 8.73,-1.27 12.94,-3.83 v 9.63 c -4.55,2.28 -9.49,3.41 -14.8,3.41 -8.14,0 -14.35,-2.59 -18.63,-7.76 -4,-4.76 -6,-11.31 -6,-19.66 0,-7.8 1.72,-14.21 5.17,-19.25 3.93,-5.73 9.63,-8.59 17.08,-8.59 6.76,0 11.97,2.86 15.63,8.59 3.11,4.97 4.59,10.97 4.45,18.01 l -0.1,4.45 z m -11.6,-7.56 v -0.93 c 0,-9.11 -2.86,-13.66 -8.59,-13.66 -5.73,0 -9.11,4.86 -9.73,14.59 z m -16.66,-29.08 6.62,-14.9 h 12.01 l -10.56,14.9 z"
       id="path58" />
    <path
       class="cls-2"
       d="m 1167.11,259.34 h 12.42 v 25.77 c 3.11,-5.52 7.56,-8.28 13.35,-8.28 12.42,0 18.63,9.21 18.63,27.64 0,7.59 -1.21,13.73 -3.62,18.42 -3.1,6.21 -8.07,9.32 -14.9,9.32 -6.14,0 -10.83,-3.04 -14.08,-9.11 0,1.93 -0.14,4.59 -0.41,7.97 h -11.38 v -71.73 z m 12.41,47.92 c 0,10.21 3.14,15.32 9.42,15.32 6.28,0 9.42,-6 9.42,-18.01 0,-12.01 -3.14,-18.01 -9.42,-18.01 -6.28,0 -9.42,5.11 -9.42,15.32 z"
       id="path60" />
    <path
       class="cls-2"
       d="m 1261.39,307.88 h -29.7 c 0.48,10.01 5.14,15.01 13.97,15.01 4.41,0 8.73,-1.27 12.94,-3.83 v 9.63 c -4.55,2.28 -9.49,3.41 -14.8,3.41 -8.14,0 -14.35,-2.59 -18.63,-7.76 -4,-4.76 -6,-11.31 -6,-19.66 0,-7.8 1.72,-14.21 5.17,-19.25 3.93,-5.73 9.63,-8.59 17.08,-8.59 6.76,0 11.97,2.86 15.63,8.59 3.11,4.97 4.59,10.97 4.45,18.01 l -0.1,4.45 z m -11.59,-7.56 v -0.93 c 0,-9.11 -2.86,-13.66 -8.59,-13.66 -5.73,0 -9.11,4.86 -9.73,14.59 z"
       id="path62" />
    <path
       class="cls-2"
       d="m 1305.28,279.11 -0.62,10.04 c -2.9,-1.59 -5.93,-2.38 -9.11,-2.38 -4.62,0 -8.07,1.73 -10.35,5.17 -1.93,2.97 -2.9,6.9 -2.9,11.8 0,5.17 0.93,9.35 2.79,12.52 2.28,3.93 5.83,5.9 10.66,5.9 3.38,0 6.63,-0.86 9.73,-2.59 l 0.52,10.14 c -4.28,1.59 -8.76,2.38 -13.45,2.38 -7.59,0 -13.45,-2.72 -17.6,-8.18 -3.8,-4.97 -5.69,-11.35 -5.69,-19.15 0,-8.35 1.97,-14.97 5.9,-19.87 4.28,-5.38 10.45,-8.07 18.53,-8.07 3.59,0 7.45,0.76 11.59,2.28 z"
       id="path64" />
  </g>
</svg>
